<svg width="151" height="47" viewBox="0 0 151 47" fill="none" xmlns="http://www.w3.org/2000/svg">
<path d="M18.0557 46.7119C16.4263 29.2317 0 29.5835 0 29.5835V13.483C0 13.483 17.0129 12.8919 26.9423 27.4163C36.8717 41.9408 25.0061 46.7088 25.0061 46.7088L18.0557 46.7119Z" fill="#DE8A59"/>
<path d="M52 13.7958C17.2179 16.302 17.8144 46.7118 17.8144 46.7118H33.9384C33.9384 46.7118 33.7999 31.0981 52 29.3844" fill="#4D2E46"/>
<path d="M15.9982 13.5216C19.8066 13.5216 22.8939 10.4947 22.8939 6.7608C22.8939 3.02691 19.8066 0 15.9982 0C12.1898 0 9.10254 3.02691 9.10254 6.7608C9.10254 10.4947 12.1898 13.5216 15.9982 13.5216Z" fill="#DE8A59"/>
<path d="M36.0589 13.5216C39.8673 13.5216 42.9546 10.4947 42.9546 6.7608C42.9546 3.02691 39.8673 0 36.0589 0C32.2505 0 29.1632 3.02691 29.1632 6.7608C29.1632 10.4947 32.2505 13.5216 36.0589 13.5216Z" fill="#4D2E46"/>
<path d="M74.5793 33L70.9713 26.07C72.7313 25.586 74.0953 24.156 74.0953 21.912C74.0953 19.25 72.2033 17.336 69.2333 17.336H63.1613V33H65.5373V26.4H68.5073L71.8073 33H74.5793ZM71.7193 21.934C71.7193 23.474 70.6413 24.376 69.0573 24.376H65.5373V19.47H69.0573C70.6413 19.47 71.7193 20.394 71.7193 21.934ZM86.6413 28.072V27.082C86.6413 23.914 84.9033 21.714 81.9113 21.714C79.0513 21.714 77.1813 23.804 77.1813 27.412C77.1813 31.658 79.4033 33.132 82.1973 33.132C84.1553 33.132 85.2333 32.538 86.3773 31.394L84.9473 30.052C84.1553 30.844 83.4953 31.196 82.2413 31.196C80.4153 31.196 79.4033 29.986 79.4033 28.072H86.6413ZM84.4193 26.51H79.4033C79.4253 25.828 79.4693 25.498 79.6893 24.992C80.0413 24.156 80.8553 23.584 81.9113 23.584C82.9673 23.584 83.7593 24.156 84.1113 24.992C84.3313 25.498 84.3973 25.828 84.4193 26.51ZM105.893 33V25.872C105.893 24.618 105.563 23.562 104.705 22.726C104.045 22.088 103.033 21.714 101.889 21.714C100.415 21.714 99.2927 22.242 98.3907 23.342C97.6867 22.264 96.6087 21.714 95.2227 21.714C94.1007 21.714 93.0007 22.154 92.2527 22.968V21.846H90.0527V33H92.2967V26.202C92.2967 24.486 93.3527 23.716 94.6067 23.716C95.8607 23.716 96.8507 24.464 96.8507 26.202V33H99.0947V26.092C99.0947 24.486 100.195 23.716 101.405 23.716C102.659 23.716 103.649 24.464 103.649 26.202V33H105.893ZM112.03 33V21.846H109.786V33H112.03ZM112.096 19.646V17.27H109.72V19.646H112.096ZM120.69 33V31.086H119.766C118.93 31.086 118.534 30.602 118.534 29.788V23.76H120.69V22.044H118.534V18.656H116.29V22.044H115.014V23.76H116.29V29.898C116.29 31.504 117.258 33 119.348 33H120.69ZM126.23 33V21.846H123.986V33H126.23ZM126.296 19.646V17.27H123.92V19.646H126.296ZM138.631 21.846H136.255L133.637 29.7L130.997 21.846H128.621L132.713 33H134.539L138.631 21.846ZM149.695 28.072V27.082C149.695 23.914 147.957 21.714 144.965 21.714C142.105 21.714 140.235 23.804 140.235 27.412C140.235 31.658 142.457 33.132 145.251 33.132C147.209 33.132 148.287 32.538 149.431 31.394L148.001 30.052C147.209 30.844 146.549 31.196 145.295 31.196C143.469 31.196 142.457 29.986 142.457 28.072H149.695ZM147.473 26.51H142.457C142.479 25.828 142.523 25.498 142.743 24.992C143.095 24.156 143.909 23.584 144.965 23.584C146.021 23.584 146.813 24.156 147.165 24.992C147.385 25.498 147.451 25.828 147.473 26.51Z" fill="#4D2E46"/>
</svg>
